<svg width="19" height="19" viewBox="0 0 19 19" fill="none" xmlns="http://www.w3.org/2000/svg">
<path d="M13.9573 11.1298C14.1891 11.1298 14.4114 11.0377 14.5753 10.8738C14.7392 10.7099 14.8312 10.4876 14.8312 10.2558C14.8312 10.024 14.7392 9.80171 14.5753 9.63781C14.4114 9.47391 14.1891 9.38184 13.9573 9.38184C13.7255 9.38184 13.5032 9.47391 13.3393 9.63781C13.1754 9.80171 13.0833 10.024 13.0833 10.2558C13.0833 10.4876 13.1754 10.7099 13.3393 10.8738C13.5032 11.0377 13.7255 11.1298 13.9573 11.1298ZM13.9573 14.6256C14.1891 14.6256 14.4114 14.5335 14.5753 14.3696C14.7392 14.2057 14.8312 13.9834 14.8312 13.7516C14.8312 13.5198 14.7392 13.2975 14.5753 13.1336C14.4114 12.9697 14.1891 12.8777 13.9573 12.8777C13.7255 12.8777 13.5032 12.9697 13.3393 13.1336C13.1754 13.2975 13.0833 13.5198 13.0833 13.7516C13.0833 13.9834 13.1754 14.2057 13.3393 14.3696C13.5032 14.5335 13.7255 14.6256 13.9573 14.6256ZM10.4615 10.2558C10.4615 10.4876 10.3694 10.7099 10.2055 10.8738C10.0416 11.0377 9.81928 11.1298 9.58749 11.1298C9.35571 11.1298 9.13341 11.0377 8.96951 10.8738C8.80561 10.7099 8.71354 10.4876 8.71354 10.2558C8.71354 10.024 8.80561 9.80171 8.96951 9.63781C9.13341 9.47391 9.35571 9.38184 9.58749 9.38184C9.81928 9.38184 10.0416 9.47391 10.2055 9.63781C10.3694 9.80171 10.4615 10.024 10.4615 10.2558ZM10.4615 13.7516C10.4615 13.9834 10.3694 14.2057 10.2055 14.3696C10.0416 14.5335 9.81928 14.6256 9.58749 14.6256C9.35571 14.6256 9.13341 14.5335 8.96951 14.3696C8.80561 14.2057 8.71354 13.9834 8.71354 13.7516C8.71354 13.5198 8.80561 13.2975 8.96951 13.1336C9.13341 12.9697 9.35571 12.8777 9.58749 12.8777C9.81928 12.8777 10.0416 12.9697 10.2055 13.1336C10.3694 13.2975 10.4615 13.5198 10.4615 13.7516ZM5.21771 11.1298C5.4495 11.1298 5.67179 11.0377 5.83569 10.8738C5.99959 10.7099 6.09166 10.4876 6.09166 10.2558C6.09166 10.024 5.99959 9.80171 5.83569 9.63781C5.67179 9.47391 5.4495 9.38184 5.21771 9.38184C4.98592 9.38184 4.76363 9.47391 4.59973 9.63781C4.43583 9.80171 4.34375 10.024 4.34375 10.2558C4.34375 10.4876 4.43583 10.7099 4.59973 10.8738C4.76363 11.0377 4.98592 11.1298 5.21771 11.1298ZM5.21771 14.6256C5.4495 14.6256 5.67179 14.5335 5.83569 14.3696C5.99959 14.2057 6.09166 13.9834 6.09166 13.7516C6.09166 13.5198 5.99959 13.2975 5.83569 13.1336C5.67179 12.9697 5.4495 12.8777 5.21771 12.8777C4.98592 12.8777 4.76363 12.9697 4.59973 13.1336C4.43583 13.2975 4.34375 13.5198 4.34375 13.7516C4.34375 13.9834 4.43583 14.2057 4.59973 14.3696C4.76363 14.5335 4.98592 14.6256 5.21771 14.6256Z" fill="#FF9D2A"/>
<path fill-rule="evenodd" clip-rule="evenodd" d="M5.21666 0.423828C5.3905 0.423828 5.55722 0.492886 5.68015 0.61581C5.80307 0.738734 5.87213 0.905455 5.87213 1.0793V1.74613C6.45069 1.73476 7.0878 1.73476 7.78872 1.73476H11.3833C12.0851 1.73476 12.7222 1.73476 13.3008 1.74613V1.0793C13.3008 0.905455 13.3698 0.738734 13.4927 0.61581C13.6157 0.492886 13.7824 0.423828 13.9562 0.423828C14.1301 0.423828 14.2968 0.492886 14.4197 0.61581C14.5426 0.738734 14.6117 0.905455 14.6117 1.0793V1.80206C14.8389 1.81954 15.0539 1.84139 15.2576 1.86848C16.2818 2.00657 17.1112 2.29672 17.7658 2.95044C18.4195 3.60503 18.7097 4.43442 18.8478 5.4587C18.9815 6.45501 18.9815 7.72662 18.9815 9.33295V11.1787C18.9815 12.7851 18.9815 14.0576 18.8478 15.053C18.7097 16.0773 18.4195 16.9067 17.7658 17.5613C17.1112 18.215 16.2818 18.5051 15.2576 18.6432C14.2612 18.7769 12.9896 18.7769 11.3833 18.7769H7.78959C6.18326 18.7769 4.91078 18.7769 3.91534 18.6432C2.89106 18.5051 2.06167 18.215 1.40708 17.5613C0.753361 16.9067 0.463207 16.0773 0.325122 15.053C0.191406 14.0567 0.191406 12.7851 0.191406 11.1787V9.33295C0.191406 7.72662 0.191406 6.45413 0.325122 5.4587C0.463207 4.43442 0.753361 3.60503 1.40708 2.95044C2.06167 2.29672 2.89106 2.00657 3.91534 1.86848C4.11897 1.84139 4.33484 1.81954 4.56119 1.80206V1.0793C4.56119 0.905455 4.63025 0.738734 4.75317 0.61581C4.8761 0.492886 5.04282 0.423828 5.21666 0.423828ZM4.08926 3.16805C3.21093 3.28604 2.70403 3.50802 2.33435 3.87771C1.96467 4.24739 1.74268 4.75429 1.6247 5.63349C1.6046 5.78206 1.58799 5.93937 1.57401 6.10455H17.5989C17.5849 5.9385 17.5683 5.78206 17.5482 5.63261C17.4302 4.75429 17.2082 4.24739 16.8385 3.87771C16.4689 3.50802 15.962 3.28604 15.0828 3.16805C14.1852 3.04745 13.001 3.0457 11.3344 3.0457H7.83853C6.1719 3.0457 4.98856 3.04745 4.08926 3.16805ZM1.50234 9.38189C1.50234 8.63553 1.50234 7.98618 1.5137 7.41549H17.6592C17.6706 7.98618 17.6706 8.63553 17.6706 9.38189V11.1298C17.6706 12.7964 17.6688 13.9807 17.5482 14.8791C17.4302 15.7574 17.2082 16.2643 16.8385 16.634C16.4689 17.0037 15.962 17.2257 15.0828 17.3436C14.1852 17.4643 13.001 17.466 11.3344 17.466H7.83853C6.1719 17.466 4.98856 17.4643 4.08926 17.3436C3.21093 17.2257 2.70403 17.0037 2.33435 16.634C1.96467 16.2643 1.74268 15.7574 1.6247 14.8782C1.50409 13.9807 1.50234 12.7964 1.50234 11.1298V9.38189Z" fill="#FF9D2A"/>
</svg>
