<svg width="34" height="34" viewBox="0 0 34 34" fill="none" xmlns="http://www.w3.org/2000/svg">
<rect x="0.5" y="0.5" width="33" height="33" rx="4.5" stroke="black" stroke-opacity="0.08"/>
<rect width="34" height="34" rx="5" fill="white" fill-opacity="0.1"/>
<path d="M19.2508 7.875C18.0242 7.875 16.8478 8.36228 15.9804 9.22963C15.1131 10.097 14.6258 11.2734 14.6258 12.5V15.075H12.1508C12.0268 15.075 11.9258 15.175 11.9258 15.3V18.7C11.9258 18.824 12.0258 18.925 12.1508 18.925H14.6258V25.9C14.6258 26.024 14.7258 26.125 14.8508 26.125H18.2508C18.3748 26.125 18.4758 26.025 18.4758 25.9V18.925H20.9728C21.0758 18.925 21.1658 18.855 21.1908 18.755L22.0408 15.355C22.0491 15.3218 22.0498 15.2872 22.0428 15.2537C22.0357 15.2202 22.0212 15.1888 22.0001 15.1618C21.9791 15.1348 21.9522 15.1129 21.9215 15.0979C21.8908 15.0829 21.857 15.075 21.8228 15.075H18.4758V12.5C18.4758 12.3982 18.4958 12.2974 18.5348 12.2034C18.5737 12.1094 18.6308 12.024 18.7028 11.952C18.7747 11.88 18.8602 11.8229 18.9542 11.784C19.0482 11.745 19.149 11.725 19.2508 11.725H21.8508C21.9748 11.725 22.0758 11.625 22.0758 11.5V8.1C22.0758 7.976 21.9758 7.875 21.8508 7.875H19.2508Z" fill="#FF9D2A"/>
</svg>
