<svg width="35" height="34" viewBox="0 0 35 34" fill="none" xmlns="http://www.w3.org/2000/svg">
<rect x="1.20508" y="0.5" width="33" height="33" rx="4.5" stroke="black" stroke-opacity="0.08"/>
<path d="M29.3926 0L6.01758 0C3.08357 0 0.705078 2.37849 0.705078 5.3125L0.705078 28.6875C0.705078 31.6215 3.08357 34 6.01758 34H29.3926C32.3266 34 34.7051 31.6215 34.7051 28.6875V5.3125C34.7051 2.37849 32.3266 0 29.3926 0Z" fill="white" fill-opacity="0.1"/>
<path d="M17.7055 9.77539C20.043 9.77539 20.3617 9.77539 21.318 9.77539C22.168 9.77539 22.593 9.98789 22.9117 10.0941C23.3367 10.3066 23.6555 10.4129 23.9742 10.7316C24.293 11.0504 24.5055 11.3691 24.6117 11.7941C24.718 12.1129 24.8242 12.5379 24.9305 13.3879C24.9305 14.3441 24.9305 14.5566 24.9305 17.0004C24.9305 19.4441 24.9305 19.6566 24.9305 20.6129C24.9305 21.4629 24.718 21.8879 24.6117 22.2066C24.3992 22.6316 24.293 22.9504 23.9742 23.2691C23.6555 23.5879 23.3367 23.8004 22.9117 23.9066C22.593 24.0129 22.168 24.1191 21.318 24.2254C20.3617 24.2254 20.1492 24.2254 17.7055 24.2254C15.2617 24.2254 15.0492 24.2254 14.093 24.2254C13.243 24.2254 12.818 24.0129 12.4992 23.9066C12.0742 23.6941 11.7555 23.5879 11.4367 23.2691C11.118 22.9504 10.9055 22.6316 10.7992 22.2066C10.693 21.8879 10.5867 21.4629 10.4805 20.6129C10.4805 19.6566 10.4805 19.4441 10.4805 17.0004C10.4805 14.5566 10.4805 14.3441 10.4805 13.3879C10.4805 12.5379 10.693 12.1129 10.7992 11.7941C11.0117 11.3691 11.118 11.0504 11.4367 10.7316C11.7555 10.4129 12.0742 10.2004 12.4992 10.0941C12.818 9.98789 13.243 9.88164 14.093 9.77539C15.0492 9.77539 15.368 9.77539 17.7055 9.77539ZM17.7055 8.18164C15.2617 8.18164 15.0492 8.18164 14.093 8.18164C13.1367 8.18164 12.4992 8.39414 11.968 8.60664C11.4367 8.81914 10.9055 9.13789 10.3742 9.66914C9.84297 10.2004 9.63047 10.6254 9.31172 11.2629C9.09922 11.7941 8.99297 12.4316 8.88672 13.3879C8.88672 14.3441 8.88672 14.6629 8.88672 17.0004C8.88672 19.4441 8.88672 19.6566 8.88672 20.6129C8.88672 21.5691 9.09922 22.2066 9.31172 22.7379C9.52422 23.2691 9.84297 23.8004 10.3742 24.3316C10.9055 24.8629 11.3305 25.0754 11.968 25.3941C12.4992 25.6066 13.1367 25.7129 14.093 25.8191C15.0492 25.8191 15.368 25.8191 17.7055 25.8191C20.043 25.8191 20.3617 25.8191 21.318 25.8191C22.2742 25.8191 22.9117 25.6066 23.443 25.3941C23.9742 25.1816 24.5055 24.8629 25.0367 24.3316C25.568 23.8004 25.7805 23.3754 26.0992 22.7379C26.3117 22.2066 26.418 21.5691 26.5242 20.6129C26.5242 19.6566 26.5242 19.3379 26.5242 17.0004C26.5242 14.6629 26.5242 14.3441 26.5242 13.3879C26.5242 12.4316 26.3117 11.7941 26.0992 11.2629C25.8867 10.7316 25.568 10.2004 25.0367 9.66914C24.5055 9.13789 24.0805 8.92539 23.443 8.60664C22.9117 8.39414 22.2742 8.28789 21.318 8.18164C20.3617 8.18164 20.1492 8.18164 17.7055 8.18164Z" fill="#FF9D2A"/>
<path d="M17.7055 12.4316C15.1555 12.4316 13.1367 14.4504 13.1367 17.0004C13.1367 19.5504 15.1555 21.5691 17.7055 21.5691C20.2555 21.5691 22.2742 19.5504 22.2742 17.0004C22.2742 14.4504 20.2555 12.4316 17.7055 12.4316ZM17.7055 19.9754C16.1117 19.9754 14.7305 18.7004 14.7305 17.0004C14.7305 15.4066 16.0055 14.0254 17.7055 14.0254C19.2992 14.0254 20.6805 15.3004 20.6805 17.0004C20.6805 18.5941 19.2992 19.9754 17.7055 19.9754Z" fill="#FF9D2A"/>
<path d="M22.3805 13.3879C22.9673 13.3879 23.443 12.9122 23.443 12.3254C23.443 11.7386 22.9673 11.2629 22.3805 11.2629C21.7937 11.2629 21.318 11.7386 21.318 12.3254C21.318 12.9122 21.7937 13.3879 22.3805 13.3879Z" fill="#FF9D2A"/>
</svg>
