<svg width="35" height="34" viewBox="0 0 35 34" fill="none" xmlns="http://www.w3.org/2000/svg">
<rect x="1.375" y="0.5" width="33" height="33" rx="4.5" stroke="black" stroke-opacity="0.08"/>
<path d="M29.5625 0L6.1875 0C3.25349 0 0.875 2.37849 0.875 5.3125L0.875 28.6875C0.875 31.6215 3.25349 34 6.1875 34H29.5625C32.4965 34 34.875 31.6215 34.875 28.6875V5.3125C34.875 2.37849 32.4965 0 29.5625 0Z" fill="white" fill-opacity="0.1"/>
<path d="M13.2 25.5H9.5875V14.1313H13.2V25.5ZM11.3938 12.5375C10.225 12.5375 9.375 11.6875 9.375 10.5187C9.375 9.35 10.3313 8.5 11.3938 8.5C12.5625 8.5 13.4125 9.35 13.4125 10.5187C13.4125 11.6875 12.5625 12.5375 11.3938 12.5375ZM26.375 25.5H22.7625V19.3375C22.7625 17.5313 22.0187 17 20.9562 17C19.8937 17 18.8312 17.85 18.8312 19.4437V25.5H15.2187V14.1313H18.6187V15.725C18.9375 14.9813 20.2125 13.8125 22.0187 13.8125C24.0375 13.8125 26.1625 14.9812 26.1625 18.4875V25.5H26.375Z" fill="#FF9D2A"/>
</svg>
