<?xml version="1.0" encoding="utf-8"?>
<!-- Generator: Adobe Illustrator 22.1.0, SVG Export Plug-In . SVG Version: 6.00 Build 0)  -->
<svg version="1.1" id="Layer_1" xmlns="http://www.w3.org/2000/svg" xmlns:xlink="http://www.w3.org/1999/xlink" x="0px" y="0px"
	 viewBox="0 0 2709.6 841.9" style="enable-background:new 0 0 2709.6 841.9;" xml:space="preserve">
<style type="text/css">
	.st0{fill:#231F20;}
	.st1{fill:#F69320;}
</style>
<g>
	<path class="st0" d="M634.9,341.6c-7.7-52-39.4-98-84.8-123.1c-44.7-24.6-97.7-26.5-145.4-5.3c-43.2,19.2-76,56.4-90,102.1
		c-14,45.8-7.6,95.2,17.6,135.6c27.8,44.5,57.9,88.4,87,130.9c11.9,17.4,23.8,34.7,35.6,52.2c5.9,8.7,12.1,10.7,16.5,10.7
		c0.3,0,0.5,0,0.8,0c4.4-0.2,10.8-2.6,16-12.3c6.8-12.8,13.4-25.9,19.8-38.6c2.7-5.4,5.5-10.8,8.3-16.4c1.1-2.1,4.3-8.3-2.5-15.7
		c-3.2-3.6-8.8-3.5-12,0.2c-2.8,3.3-5.7,6.6-8.5,9.9c-6.8,7.9-13.8,16-20.4,24.3c-19.5-29.9-39.2-59.8-58.9-89.6
		c-14.3-21.7-28.6-43.4-42.9-65.2c-22-33.6-28.7-67.3-20.6-103.2c7.6-33.4,27.7-61.5,56.5-79.1c28.4-17.3,61.9-22.2,94.3-13.8
		c31.1,8.1,58.3,29.3,74.6,58.3c16.6,29.4,20.7,64.4,11.3,96c-5,16.9-13.5,32.5-23.1,47.1c-9.8,15-19.5,30.2-30.7,44.1
		c-5.9,7.4-16,12.3-25.6,8.5c-8.6-3.4-12.7-9.3-12.7-18.1c-0.1-23.6,0-47.3,0.1-70.9c0.1-22.1,0.1-44.3,0.1-66.4c0-0.2,0-0.4,0-0.5
		c0.3,0,0.7,0,1.2,0c11.4,0.2,22.5,0.4,33.7-0.3c14.5-0.8,23.8-10.6,23.7-24.7c-0.1-14.4-9.9-24.2-24.4-24.4
		c-36.6-0.4-74.5-0.4-116.1,0c-7.6,0.1-14,2.6-18.6,7.4c-4.4,4.6-6.6,11-6.3,18c0.6,14.1,9.7,23,24.3,23.8c10,0.6,19.8,1,29.6,0
		c2.1-0.2,3.2-0.1,3.8,0c0.2,0.6,0.5,2.1,0.5,5.4c-0.1,43.7,0,90.3,1.4,136.3c0.9,28.9,20.2,52.6,49.2,60.2
		c29.5,7.8,57.1-2.4,73.8-27.4c11.1-16.6,22.2-33.6,32.8-50l4.2-6.5C632.2,424.1,641.2,383.9,634.9,341.6z"/>
	<path class="st1" d="M576,303.3c-16.3-29-43.5-50.2-74.6-58.3c-32.4-8.4-65.9-3.5-94.3,13.8c-28.9,17.6-48.9,45.6-56.5,79.1
		c-8.1,35.9-1.4,69.7,20.6,103.2c14.3,21.8,28.6,43.5,42.9,65.2c19.7,29.8,39.3,59.7,58.9,89.6c3.1-3.8,6.3-7.6,9.4-11.4l-0.5,0.6
		l0.5-0.6c3.7-4.4,7.4-8.7,11-12.9c2.8-3.3,5.7-6.6,8.5-9.9c0.3-0.4,0.7-0.5,1.1-0.8l11.8-13.5c-5.7-0.1-11.5-0.8-17.4-2.4
		c-29-7.7-48.3-31.3-49.2-60.2c-1.5-46-1.5-92.6-1.4-136.3c0-3.3-0.3-4.8-0.5-5.4c-0.5-0.1-1.7-0.2-3.8,0c-9.8,1-19.6,0.5-29.6,0
		c-14.6-0.8-23.7-9.7-24.3-23.8c-0.3-7,1.9-13.4,6.3-18c4.5-4.8,11-7.4,18.6-7.4c41.6-0.4,79.6-0.4,116.1,0
		c14.5,0.2,24.3,10,24.4,24.4c0.1,14.2-9.2,23.9-23.7,24.7c-11.3,0.7-22.4,0.5-33.7,0.3c-0.5,0-0.9,0-1.2,0c0,0.2,0,0.3,0,0.5
		c0,22.1,0,44.3-0.1,66.4c-0.1,23.6-0.2,47.3-0.1,70.9c0,8.8,4.2,14.8,12.7,18.1c9.6,3.8,19.7-1.2,25.6-8.5
		c11.2-13.9,21-29.1,30.7-44.1c9.6-14.7,18-30.3,23.1-47.1C596.7,367.7,592.6,332.7,576,303.3z"/>
	<path class="st0" d="M1054.6,326.3c17.2-17.2,43-25.8,77.4-25.8c28.6,0,52.9,10,73.1,30.1c5.2,5.3,9.6,10.7,13.4,16.3
		c5.4,6.3,8.1,13.8,8.1,22.4c0,9.5-3.4,17.6-10.1,24.3c-6.7,6.7-14.8,10.1-24.3,10.1c-9.5,0-17.6-3.4-24.3-10.1l-11.5-14.3
		c-6.8-6.6-14.9-10-24.4-10c-9.5,0-17.6,3.4-24.3,10.1c-6.7,6.7-10.1,14.8-10.1,24.3V507c0,9.5-3.4,17.6-10.1,24.3
		c-6.7,6.7-14.8,10.1-24.3,10.1c-9.5,0-17.6-3.4-24.3-10.1c-6.7-6.7-10.1-14.8-10.1-24.3V403.7
		C1028.8,369.3,1037.4,343.5,1054.6,326.3z"/>
	<path class="st0" d="M1329.8,507c0,9.5-3.4,17.6-10.1,24.3c-6.7,6.7-14.8,10.1-24.3,10.1c-9.5,0-17.6-3.4-24.3-10.1
		c-6.7-6.7-10.1-14.8-10.1-24.3v-172c0-9.5,3.4-17.6,10.1-24.3c6.7-6.7,14.8-10.1,24.3-10.1c9.5,0,17.6,3.4,24.3,10.1
		c6.7,6.7,10.1,14.8,10.1,24.3V507z"/>
	<path class="st0" d="M1364.2,420.9c0-33.3,11.8-61.6,35.3-85.2c23.5-23.5,51.9-35.3,85.2-35.3c33.3,0,61.6,11.8,85.2,35.3
		c23.5,23.5,35.3,51.9,35.3,85.2s-11.8,61.6-35.3,85.2c-23.5,23.5-51.9,35.3-85.2,35.3c-18.8,0-36-3.7-51.6-11.2v80
		c0,9.5-3.4,17.6-10.1,24.3c-6.7,6.7-14.8,10.1-24.3,10.1c-9.5,0-17.6-3.4-24.3-10.1c-6.7-6.7-10.1-14.8-10.1-24.3V420.9z
		 M1521.1,457.4c10.1-10.1,15.1-22.2,15.1-36.5c0-14.2-5-26.4-15.1-36.5s-22.3-15.1-36.5-15.1c-14.2,0-26.4,5-36.5,15.1
		c-10.1,10.1-15.1,22.3-15.1,36.5c0,14.2,5,26.4,15.1,36.5c10.1,10.1,22.2,15.1,36.5,15.1C1498.9,472.6,1511,467.5,1521.1,457.4z"/>
	<path class="st0" d="M1886.1,420.9c0,33.3-11.8,61.6-35.3,85.2c-23.5,23.5-51.9,35.3-85.2,35.3c-33.3,0-61.7-11.8-85.2-35.3
		c-23.5-23.5-35.3-51.9-35.3-85.2s11.8-61.6,35.3-85.2c23.5-23.5,51.9-35.3,85.2-35.3c18.8,0,36,3.7,51.6,11.2v-78.6
		c0-9.5,3.4-17.6,10.1-24.3c6.7-6.7,14.8-10.1,24.3-10.1c9.5,0,17.6,3.4,24.3,10.1c6.7,6.7,10.1,14.8,10.1,24.3V420.9z
		 M1802.2,457.4c10.1-10.1,15.1-22.2,15.1-36.5c0-14.2-5-26.4-15.1-36.5c-10.1-10.1-22.3-15.1-36.5-15.1c-14.2,0-26.4,5-36.5,15.1
		s-15.1,22.3-15.1,36.5c0,14.2,5,26.4,15.1,36.5c10.1,10.1,22.3,15.1,36.5,15.1C1779.9,472.6,1792.1,467.5,1802.2,457.4z"/>
	<path class="st0" d="M2098.9,526.9c-17.3,9.6-36.6,14.5-58,14.5c-33.3,0-61.7-11.8-85.2-35.3c-23.5-23.5-35.3-51.9-35.3-85.2
		s11.5-61.6,34.4-85.2c22.9-23.5,51.6-35.3,86-35.3c34.4,0,63.1,11.5,86,34.4c22.9,22.9,34.4,51.6,34.4,86v86
		c0,9.5-3.4,17.6-10.1,24.3c-6.7,6.7-14.8,10.1-24.3,10.1c-9.5,0-17.6-3.4-24.3-10.2C2101.2,529.8,2100,528.4,2098.9,526.9z
		 M2077.4,457.4c10.1-10.1,15.1-22.2,15.1-36.5c0-14.2-5-26.4-15.1-36.5s-22.3-15.1-36.5-15.1s-26.4,5-36.5,15.1
		c-10.1,10.1-15.1,22.3-15.1,36.5c0,14.2,5,26.4,15.1,36.5c10.1,10.1,36.5,46.6,36.5,46.6S2067.3,467.5,2077.4,457.4z"/>
	<path class="st0" d="M2402.2,334.9c0,9.5-1.4,16.7-4.3,21.5l-111.8,271h-0.2c-1.5,2.5-3.3,4.9-5.5,7.1
		c-6.8,6.8-14.9,10.1-24.4,10.1c-9.5,0-17.6-3.4-24.3-10.1c-6.7-6.7-10.1-14.8-10.1-24.3c0-6.3,1.5-12,4.5-17.2h-0.2l36-88.4
		l-61.8-152.4c-1.7-5.2-3.2-10.9-4.3-17.2c0-9.5,3.4-17.6,10.1-24.3c6.7-6.7,14.8-10.1,24.3-10.1s17.7,3.3,24.4,10
		c4.5,5.7,7.7,12.4,9.8,20.1h0.2l34.4,81.7l7.6-18.2l26.8-63.5h0.2c2.1-7.7,5.4-14.4,10-20.1c6.7-6.6,14.7-10,24.3-10
		c9.5,0,17.6,3.4,24.3,10.1C2398.9,317.3,2402.2,325.4,2402.2,334.9z"/>
	<path class="st0" d="M1295.4,266.1c-9.5,0-17.6-3.4-24.3-10.1c-6.7-6.7-10.1-14.8-10.1-24.3c0-9.5,3.4-17.6,10.1-24.3
		c6.7-6.7,14.8-10.1,24.3-10.1c9.5,0,17.6,3.4,24.3,10.1c6.7,6.7,10.1,14.8,10.1,24.3c0,9.5-3.4,17.6-10.1,24.3
		C1313.1,262.8,1304.9,266.1,1295.4,266.1z"/>
	<path class="st0" d="M2041,455.4c-9.5,0-17.6-3.4-24.3-10.1c-6.7-6.7-10.1-14.8-10.1-24.3c0-9.5,3.4-17.6,10.1-24.3
		c6.7-6.7,14.8-10.1,24.3-10.1c9.5,0,17.6,3.4,24.3,10.1c6.7,6.7,10.1,14.8,10.1,24.3c0,9.5-3.4,17.6-10.1,24.3
		C2058.6,452,2050.5,455.4,2041,455.4z"/>
	<path class="st0" d="M1054.6,326.3c17.2-17.2,43-25.8,77.4-25.8c28.6,0,52.9,10,73.1,30.1c5.2,5.3,9.6,10.7,13.4,16.3
		c5.4,6.3,8.1,13.8,8.1,22.4c0,9.5-3.4,17.6-10.1,24.3c-6.7,6.7-14.8,10.1-24.3,10.1c-9.5,0-17.6-3.4-24.3-10.1l-11.5-14.3
		c-6.8-6.6-14.9-10-24.4-10c-9.5,0-17.6,3.4-24.3,10.1c-6.7,6.7-10.1,14.8-10.1,24.3V507c0,9.5-3.4,17.6-10.1,24.3
		c-6.7,6.7-14.8,10.1-24.3,10.1c-9.5,0-17.6-3.4-24.3-10.1c-6.7-6.7-10.1-14.8-10.1-24.3V403.7
		C1028.8,369.3,1037.4,343.5,1054.6,326.3z"/>
	<path class="st0" d="M1329.8,507c0,9.5-3.4,17.6-10.1,24.3c-6.7,6.7-14.8,10.1-24.3,10.1c-9.5,0-17.6-3.4-24.3-10.1
		c-6.7-6.7-10.1-14.8-10.1-24.3v-172c0-9.5,3.4-17.6,10.1-24.3c6.7-6.7,14.8-10.1,24.3-10.1c9.5,0,17.6,3.4,24.3,10.1
		c6.7,6.7,10.1,14.8,10.1,24.3V507z"/>
	<path class="st0" d="M1364.2,420.9c0-33.3,11.8-61.6,35.3-85.2c23.5-23.5,51.9-35.3,85.2-35.3c33.3,0,61.6,11.8,85.2,35.3
		c23.5,23.5,35.3,51.9,35.3,85.2s-11.8,61.6-35.3,85.2c-23.5,23.5-51.9,35.3-85.2,35.3c-18.8,0-36-3.7-51.6-11.2v80
		c0,9.5-3.4,17.6-10.1,24.3c-6.7,6.7-14.8,10.1-24.3,10.1c-9.5,0-17.6-3.4-24.3-10.1c-6.7-6.7-10.1-14.8-10.1-24.3V420.9z
		 M1521.1,457.4c10.1-10.1,15.1-22.2,15.1-36.5c0-14.2-5-26.4-15.1-36.5s-22.3-15.1-36.5-15.1c-14.2,0-26.4,5-36.5,15.1
		c-10.1,10.1-15.1,22.3-15.1,36.5c0,14.2,5,26.4,15.1,36.5c10.1,10.1,22.2,15.1,36.5,15.1C1498.9,472.6,1511,467.5,1521.1,457.4z"/>
	<path class="st0" d="M1886.1,420.9c0,33.3-11.8,61.6-35.3,85.2c-23.5,23.5-51.9,35.3-85.2,35.3c-33.3,0-61.7-11.8-85.2-35.3
		c-23.5-23.5-35.3-51.9-35.3-85.2s11.8-61.6,35.3-85.2c23.5-23.5,51.9-35.3,85.2-35.3c18.8,0,36,3.7,51.6,11.2v-78.6
		c0-9.5,3.4-17.6,10.1-24.3c6.7-6.7,14.8-10.1,24.3-10.1c9.5,0,17.6,3.4,24.3,10.1c6.7,6.7,10.1,14.8,10.1,24.3V420.9z
		 M1802.2,457.4c10.1-10.1,15.1-22.2,15.1-36.5c0-14.2-5-26.4-15.1-36.5c-10.1-10.1-22.3-15.1-36.5-15.1c-14.2,0-26.4,5-36.5,15.1
		s-15.1,22.3-15.1,36.5c0,14.2,5,26.4,15.1,36.5c10.1,10.1,22.3,15.1,36.5,15.1C1779.9,472.6,1792.1,467.5,1802.2,457.4z"/>
	<path class="st0" d="M2098.9,526.9c-17.3,9.6-36.6,14.5-58,14.5c-33.3,0-61.7-11.8-85.2-35.3c-23.5-23.5-35.3-51.9-35.3-85.2
		s11.5-61.6,34.4-85.2c22.9-23.5,51.6-35.3,86-35.3c34.4,0,63.1,11.5,86,34.4c22.9,22.9,34.4,51.6,34.4,86v86
		c0,9.5-3.4,17.6-10.1,24.3c-6.7,6.7-14.8,10.1-24.3,10.1c-9.5,0-17.6-3.4-24.3-10.2C2101.2,529.8,2100,528.4,2098.9,526.9z
		 M2077.4,457.4c10.1-10.1,15.1-22.2,15.1-36.5c0-14.2-5-26.4-15.1-36.5s-22.3-15.1-36.5-15.1s-26.4,5-36.5,15.1
		c-10.1,10.1-15.1,22.3-15.1,36.5c0,14.2,5,26.4,15.1,36.5c10.1,10.1,36.5,46.6,36.5,46.6S2067.3,467.5,2077.4,457.4z"/>
	<path class="st0" d="M2402.2,334.9c0,9.5-1.4,16.7-4.3,21.5l-111.8,271h-0.2c-1.5,2.5-3.3,4.9-5.5,7.1
		c-6.8,6.8-14.9,10.1-24.4,10.1c-9.5,0-17.6-3.4-24.3-10.1c-6.7-6.7-10.1-14.8-10.1-24.3c0-6.3,1.5-12,4.5-17.2h-0.2l36-88.4
		l-61.8-152.4c-1.7-5.2-3.2-10.9-4.3-17.2c0-9.5,3.4-17.6,10.1-24.3c6.7-6.7,14.8-10.1,24.3-10.1s17.7,3.3,24.4,10
		c4.5,5.7,7.7,12.4,9.8,20.1h0.2l34.4,81.7l7.6-18.2l26.8-63.5h0.2c2.1-7.7,5.4-14.4,10-20.1c6.7-6.6,14.7-10,24.3-10
		c9.5,0,17.6,3.4,24.3,10.1C2398.9,317.3,2402.2,325.4,2402.2,334.9z"/>
	<path class="st1" d="M1295.4,266.1c-9.5,0-17.6-3.4-24.3-10.1c-6.7-6.7-10.1-14.8-10.1-24.3c0-9.5,3.4-17.6,10.1-24.3
		c6.7-6.7,14.8-10.1,24.3-10.1c9.5,0,17.6,3.4,24.3,10.1c6.7,6.7,10.1,14.8,10.1,24.3c0,9.5-3.4,17.6-10.1,24.3
		C1313.1,262.8,1304.9,266.1,1295.4,266.1z"/>
	<path class="st1" d="M2041,455.4c-9.5,0-17.6-3.4-24.3-10.1c-6.7-6.7-10.1-14.8-10.1-24.3c0-9.5,3.4-17.6,10.1-24.3
		c6.7-6.7,14.8-10.1,24.3-10.1c9.5,0,17.6,3.4,24.3,10.1c6.7,6.7,10.1,14.8,10.1,24.3c0,9.5-3.4,17.6-10.1,24.3
		C2058.6,452,2050.5,455.4,2041,455.4z"/>
	<g>
		<path class="st0" d="M995.7,207.5c6.5,2.8,11.9,7.1,16.2,13.2c4.3,6,6.9,12.2,7.7,18.6c0.9,6.4-0.3,12.1-3.6,17.3
			c-3.3,5.2-9,8.6-17.3,10.3c-15.8,2.8-30.7,4-44.6,3.6c-13.9-0.3-26.1-0.5-36.4-0.5c0,41.3,0.2,81.9,0.5,121.8
			c0.3,39.9,0.2,82-0.5,126.4c0,9.6-3.3,16.6-9.8,20.9c-6.5,4.3-13.7,6.1-21.4,5.4c-7.7-0.7-14.9-3.8-21.4-9.3
			c-6.5-5.5-9.8-13.1-9.8-22.7c-0.3-40.6-0.5-81-0.5-121.2c0-40.2,0-80.7,0-121.2c-3.1,0-8.3,0.2-15.7,0.5
			c-7.4,0.3-15.5,0.4-24.3,0.3c-8.8-0.2-17.8-0.9-27.1-2.1c-9.3-1.2-17.4-3.5-24.3-7c-5.5-2.7-9.1-6.8-10.8-12.1
			c-1.7-5.3-1.8-10.7-0.3-16.3c1.5-5.5,4.4-10.7,8.5-15.5c4.1-4.8,9.3-8.1,15.5-9.8c28.9-1.7,56.8-2.3,83.8-1.8
			c27,0.5,54.4,0.8,82.3,0.8c8.3,0,16.5-0.1,24.8-0.3c8.3-0.2,16.7-0.3,25.3-0.3L995.7,207.5z"/>
	</g>
</g>
</svg>
