<svg width="39" height="43" viewBox="0 0 39 43" fill="none" xmlns="http://www.w3.org/2000/svg">
<g filter="url(#filter0_d_1199_4047)">
<path d="M3.01232 16.6175C3.01232 14.4524 3.43876 12.3085 4.26731 10.3082C5.09586 8.30788 6.31029 6.49037 7.84125 4.95941C9.37221 3.42845 11.1897 2.21402 13.19 1.38548C15.1903 0.556925 17.3342 0.130476 19.4993 0.130476C21.6644 0.130477 23.8083 0.556926 25.8086 1.38548C27.8089 2.21403 29.6264 3.42845 31.1574 4.95941C32.6884 6.49037 33.9028 8.30789 34.7313 10.3082C35.5599 12.3085 35.9863 14.4524 35.9863 16.6175L19.4993 16.6175L3.01232 16.6175Z" fill="#1E1E1E"/>
<path d="M35.9857 16.0342C35.9857 18.1993 35.5593 20.3432 34.7307 22.3435C33.9022 24.3438 32.6878 26.1613 31.1568 27.6923C29.6258 29.2232 27.8083 30.4376 25.808 31.2662C23.8077 32.0947 21.6638 36.8818 19.4987 36.8818C17.3336 36.8818 15.1897 32.0947 13.1894 31.2662C11.1891 30.4376 9.37161 29.2232 7.84065 27.6923C6.30969 26.1613 5.09527 24.3438 4.26672 22.3435C3.43817 20.3432 3.01172 18.1993 3.01172 16.0342L19.4987 16.0342L35.9857 16.0342Z" fill="#FF9D2A"/>
<path fill-rule="evenodd" clip-rule="evenodd" d="M19.4982 5.91602C25.5369 5.91602 30.4319 10.811 30.4319 16.8498C30.4319 22.8885 25.5369 27.7835 19.4982 27.7835C13.4595 27.7835 8.56445 22.8885 8.56445 16.8498C8.56445 10.811 13.4595 5.91602 19.4982 5.91602ZM10.9753 18.8288C11.358 20.4714 12.2068 21.9686 13.4198 23.1405C14.6328 24.3124 16.1584 25.1091 17.8133 25.4349C17.6023 22.5648 16.6587 20.8428 15.4669 19.8904C14.3254 18.9775 12.7772 18.6243 10.9753 18.8277V18.8288ZM23.5295 19.8893C22.3377 20.8438 21.3941 22.5648 21.1831 25.4349C22.8381 25.1091 24.3638 24.3122 25.5768 23.1401C26.7898 21.968 27.6386 20.4705 28.021 18.8277C26.2192 18.6243 24.6709 18.9775 23.5295 19.8904V19.8893ZM19.4982 8.10276C17.4603 8.10304 15.4865 8.81457 13.9172 10.1146C12.3478 11.4147 11.2815 13.2217 10.9021 15.2239L10.8551 15.4951L13.2714 15.0118C13.9078 14.885 14.5124 14.5493 15.1881 14.0934L15.7096 13.7304C16.5811 13.1115 17.8723 12.4763 19.4982 12.4763C21.0158 12.4763 22.2415 13.0295 23.1063 13.6068L23.8083 14.0934C24.3987 14.4924 24.9366 14.7986 25.4877 14.9549L25.725 15.0118L28.1413 15.4951C27.8179 13.4351 26.7694 11.5583 25.1847 10.203C23.6001 8.84761 21.5834 8.10281 19.4982 8.10276Z" fill="white"/>
</g>
<defs>
<filter id="filter0_d_1199_4047" x="0.361116" y="0.130859" width="38.2758" height="42.0522" filterUnits="userSpaceOnUse" color-interpolation-filters="sRGB">
<feFlood flood-opacity="0" result="BackgroundImageFix"/>
<feColorMatrix in="SourceAlpha" type="matrix" values="0 0 0 0 0 0 0 0 0 0 0 0 0 0 0 0 0 0 127 0" result="hardAlpha"/>
<feOffset dy="2.6506"/>
<feGaussianBlur stdDeviation="1.3253"/>
<feComposite in2="hardAlpha" operator="out"/>
<feColorMatrix type="matrix" values="0 0 0 0 0 0 0 0 0 0 0 0 0 0 0 0 0 0 0.1 0"/>
<feBlend mode="normal" in2="BackgroundImageFix" result="effect1_dropShadow_1199_4047"/>
<feBlend mode="normal" in="SourceGraphic" in2="effect1_dropShadow_1199_4047" result="shape"/>
</filter>
</defs>
</svg>
