<svg width="35" height="34" viewBox="0 0 35 34" fill="none" xmlns="http://www.w3.org/2000/svg">
<rect x="1.4375" y="0.5" width="33" height="33" rx="4.5" stroke="black" stroke-opacity="0.08"/>
<path d="M29.625 0L6.25 0C3.31599 0 0.9375 2.37849 0.9375 5.3125L0.9375 28.6875C0.9375 31.6215 3.31599 34 6.25 34H29.625C32.559 34 34.9375 31.6215 34.9375 28.6875V5.3125C34.9375 2.37849 32.559 0 29.625 0Z" fill="white" fill-opacity="0.1"/>
<path d="M26.4375 11.6875C25.8 12.0062 25.1625 12.1125 24.4188 12.2187C25.1625 11.7937 25.6938 11.1562 25.9063 10.3062C25.2688 10.7312 24.525 10.9437 23.675 11.1562C23.0375 10.5187 22.0813 10.0938 21.125 10.0938C18.8938 10.0938 17.1938 12.2187 17.725 14.3437C14.8563 14.2375 12.3063 12.8563 10.5 10.7313C9.54375 12.325 10.075 14.3437 11.5625 15.4062C11.0313 15.4062 10.5 15.1937 9.96875 14.9812C9.96875 16.575 11.1375 18.0625 12.7313 18.4875C12.2 18.5937 11.6688 18.7 11.1375 18.5937C11.5625 19.975 12.8375 21.0375 14.4313 21.0375C13.1563 21.9937 11.2438 22.525 9.4375 22.3125C11.0313 23.2687 12.8375 23.9062 14.75 23.9062C21.2313 23.9062 24.8438 18.4875 24.6313 13.4937C25.375 13.0687 26.0125 12.4312 26.4375 11.6875Z" fill="#FF9D2A"/>
</svg>
