<svg width="19" height="19" viewBox="0 0 19 19" fill="none" xmlns="http://www.w3.org/2000/svg">
<path d="M8.40468 4.97011C8.40468 4.79627 8.47374 4.62955 8.59666 4.50663C8.71959 4.3837 8.88631 4.31464 9.06015 4.31464C9.23399 4.31464 9.40071 4.3837 9.52363 4.50663C9.64656 4.62955 9.71562 4.79627 9.71562 4.97011V9.55839H12.3375C12.5113 9.55839 12.6781 9.62745 12.801 9.75037C12.9239 9.87329 12.993 10.04 12.993 10.2139C12.993 10.3877 12.9239 10.5544 12.801 10.6773C12.6781 10.8003 12.5113 10.8693 12.3375 10.8693H9.06015C8.88631 10.8693 8.71959 10.8003 8.59666 10.6773C8.47374 10.5544 8.40468 10.3877 8.40468 10.2139V4.97011ZM9.71562 18.7349C14.7837 18.7349 18.8922 14.6265 18.8922 9.55839C18.8922 4.49031 14.7837 0.381836 9.71562 0.381836C4.64754 0.381836 0.539062 4.49031 0.539062 9.55839C0.539062 14.6265 4.64754 18.7349 9.71562 18.7349ZM9.71562 17.424C5.37183 17.424 1.85 13.9022 1.85 9.55839C1.85 5.2146 5.37183 1.69277 9.71562 1.69277C14.0594 1.69277 17.5812 5.2146 17.5812 9.55839C17.5812 13.9022 14.0594 17.424 9.71562 17.424Z" fill="#FF9D2A"/>
</svg>
